<?xml version="1.0" encoding="UTF-8"?>
<svg xmlns="http://www.w3.org/2000/svg" xmlns:xlink="http://www.w3.org/1999/xlink" width="375pt" height="374.999991pt" viewBox="0 0 375 374.999991" version="1.2">
<defs>
<clipPath id="clip1">
  <path d="M 100.15625 87.105469 L 274.90625 87.105469 L 274.90625 288 L 100.15625 288 Z M 100.15625 87.105469 "/>
</clipPath>
<clipPath id="clip2">
  <path d="M 211.507812 100.234375 L 243 100.234375 L 243 131.734375 L 211.507812 131.734375 Z M 211.507812 100.234375 "/>
</clipPath>
</defs>
<g id="surface1">
<g clip-path="url(#clip1)" clip-rule="nonzero">
<path style=" stroke:none;fill-rule:nonzero;fill:rgb(45.098877%,45.098877%,45.098877%);fill-opacity:1;" d="M 271.554688 255.332031 C 267.703125 253.351562 263.359375 250.289062 262.652344 249.121094 C 256.765625 235.890625 253.671875 190.277344 252.964844 173.652344 C 252.925781 142.71875 236.332031 117.597656 210.296875 108.402344 C 209.40625 96.664062 199.570312 87.386719 187.617188 87.386719 C 175.660156 87.386719 165.828125 96.664062 164.933594 108.402344 C 138.867188 117.609375 122.265625 142.773438 122.269531 173.601562 C 121.761719 189.8125 119.257812 234.777344 113.839844 247.878906 C 113.023438 249.308594 108.121094 252.894531 103.550781 255.402344 C 101.316406 256.628906 100.191406 259.21875 100.824219 261.6875 C 101.457031 264.160156 103.683594 265.890625 106.230469 265.890625 L 160.695312 265.890625 C 163.28125 278.390625 174.371094 287.8125 187.617188 287.8125 C 200.863281 287.8125 211.953125 278.390625 214.542969 265.890625 L 269.003906 265.890625 C 271.582031 265.890625 273.824219 264.125 274.429688 261.617188 C 275.03125 259.109375 273.847656 256.511719 271.554688 255.332031 Z M 187.613281 274.777344 C 181.613281 274.777344 176.457031 271.101562 174.269531 265.886719 L 200.960938 265.886719 C 198.769531 271.101562 193.613281 274.777344 187.613281 274.777344 Z M 187.613281 274.777344 "/>
</g>
<g clip-path="url(#clip2)" clip-rule="nonzero">
<path style=" stroke:none;fill-rule:nonzero;fill:rgb(36.079407%,88.238525%,90.19928%);fill-opacity:1;" d="M 227.257812 100.242188 C 218.578125 100.242188 211.515625 107.304688 211.515625 115.984375 C 211.515625 124.664062 218.578125 131.726562 227.257812 131.726562 C 235.9375 131.726562 243 124.664062 243 115.984375 C 243 107.304688 235.9375 100.242188 227.257812 100.242188 Z M 217.578125 123.972656 L 219.550781 122 C 219.957031 121.59375 220.613281 121.59375 221.019531 122 C 221.425781 122.40625 221.425781 123.0625 221.019531 123.46875 L 219.046875 125.441406 C 218.84375 125.644531 218.578125 125.742188 218.3125 125.742188 C 218.046875 125.742188 217.78125 125.640625 217.578125 125.441406 C 217.171875 125.035156 217.171875 124.375 217.578125 123.972656 Z M 215.226562 117.023438 C 214.652344 117.023438 214.1875 116.558594 214.1875 115.984375 C 214.1875 115.410156 214.652344 114.945312 215.226562 114.945312 L 218.015625 114.945312 C 218.585938 114.945312 219.054688 115.410156 219.054688 115.984375 C 219.054688 116.558594 218.585938 117.023438 218.015625 117.023438 Z M 220.710938 110.273438 C 220.445312 110.273438 220.179688 110.171875 219.976562 109.96875 L 218.007812 107.996094 C 217.601562 107.589844 217.601562 106.933594 218.007812 106.527344 C 218.410156 106.121094 219.070312 106.121094 219.472656 106.527344 L 221.445312 108.5 C 221.851562 108.90625 221.851562 109.5625 221.445312 109.96875 C 221.242188 110.171875 220.976562 110.273438 220.710938 110.273438 Z M 227.257812 102.886719 C 227.828125 102.886719 228.296875 103.351562 228.296875 103.925781 L 228.296875 106.714844 C 228.296875 107.289062 227.828125 107.753906 227.257812 107.753906 C 226.683594 107.753906 226.21875 107.289062 226.21875 106.714844 L 226.21875 103.925781 C 226.21875 103.351562 226.683594 102.886719 227.257812 102.886719 Z M 226.21875 125.832031 C 226.21875 125.257812 226.683594 124.792969 227.257812 124.792969 C 227.828125 124.792969 228.296875 125.257812 228.296875 125.832031 L 228.296875 128.621094 C 228.296875 129.195312 227.828125 129.660156 227.257812 129.660156 C 226.683594 129.660156 226.21875 129.195312 226.21875 128.621094 Z M 233.066406 108.480469 L 235.039062 106.507812 C 235.445312 106.105469 236.101562 106.105469 236.507812 106.507812 C 236.914062 106.914062 236.914062 107.570312 236.507812 107.976562 L 234.535156 109.949219 C 234.332031 110.152344 234.066406 110.253906 233.800781 110.253906 C 233.535156 110.253906 233.269531 110.152344 233.066406 109.949219 C 232.664062 109.542969 232.664062 108.886719 233.066406 108.480469 Z M 236.203125 125.761719 C 235.9375 125.761719 235.671875 125.660156 235.46875 125.457031 L 233.496094 123.484375 C 233.089844 123.078125 233.089844 122.421875 233.496094 122.019531 C 233.902344 121.613281 234.558594 121.613281 234.964844 122.019531 L 236.9375 123.988281 C 237.339844 124.394531 237.339844 125.050781 236.9375 125.457031 C 236.734375 125.660156 236.46875 125.761719 236.203125 125.761719 Z M 237.128906 117.023438 C 236.558594 117.023438 236.09375 116.558594 236.09375 115.984375 C 236.09375 115.410156 236.558594 114.945312 237.128906 114.945312 L 239.917969 114.945312 C 240.492188 114.945312 240.957031 115.410156 240.957031 115.984375 C 240.957031 116.558594 240.492188 117.023438 239.917969 117.023438 Z M 237.128906 117.023438 "/>
</g>
</g>
</svg>
