<?xml version="1.0" encoding="UTF-8"?>
<svg xmlns="http://www.w3.org/2000/svg" xmlns:xlink="http://www.w3.org/1999/xlink" width="375pt" height="374.999991pt" viewBox="0 0 375 374.999991" version="1.2">
<defs>
<clipPath id="clip1">
  <path d="M 112.5 112.5 L 262.394531 112.5 L 262.394531 262.5 L 112.5 262.5 Z M 112.5 112.5 "/>
</clipPath>
</defs>
<g id="surface1">
<g clip-path="url(#clip1)" clip-rule="nonzero">
<path style=" stroke:none;fill-rule:nonzero;fill:rgb(45.098877%,45.098877%,45.098877%);fill-opacity:1;" d="M 186.980469 158.976562 C 202.574219 158.683594 215.4375 171.09375 215.730469 186.6875 C 215.730469 186.96875 215.730469 187.234375 215.730469 187.511719 C 215.90625 203.105469 203.414062 215.890625 187.820312 216.0625 C 172.226562 216.238281 159.441406 203.746094 159.269531 188.152344 C 159.269531 187.9375 159.269531 187.726562 159.269531 187.511719 C 159.09375 172 171.464844 159.253906 186.980469 158.976562 Z M 190.003906 112.566406 C 185.796875 112.421875 181.574219 112.632812 177.40625 113.191406 C 175.925781 113.390625 174.714844 114.429688 174.277344 115.84375 L 170.121094 129.371094 C 169.761719 130.515625 168.882812 131.4375 167.75 131.835938 C 165.792969 132.542969 163.875 133.328125 162 134.21875 C 160.90625 134.753906 159.628906 134.726562 158.5625 134.152344 L 146.070312 127.519531 C 144.753906 126.828125 143.15625 126.960938 141.984375 127.867188 C 136.628906 131.929688 131.863281 136.710938 127.789062 142.050781 C 126.882812 143.234375 126.75 144.820312 127.441406 146.136719 L 134.085938 158.640625 C 134.660156 159.695312 134.710938 160.972656 134.21875 162.066406 C 133.3125 163.941406 132.515625 165.859375 131.824219 167.816406 C 131.421875 168.964844 130.503906 169.84375 129.34375 170.1875 L 115.828125 174.355469 C 114.402344 174.78125 113.367188 176.007812 113.179688 177.472656 C 112.273438 184.144531 112.273438 190.882812 113.179688 197.554688 C 113.367188 199.019531 114.402344 200.242188 115.828125 200.671875 L 129.34375 204.839844 C 130.503906 205.183594 131.421875 206.0625 131.824219 207.207031 C 132.515625 209.167969 133.3125 211.082031 134.21875 212.960938 C 134.710938 214.054688 134.660156 215.332031 134.085938 216.382812 L 127.441406 228.886719 C 126.75 230.195312 126.882812 231.792969 127.789062 232.976562 C 131.863281 238.316406 136.628906 243.085938 141.984375 247.160156 C 143.15625 248.066406 144.753906 248.183594 146.070312 247.503906 L 158.5625 240.875 C 159.628906 240.300781 160.90625 240.273438 162 240.792969 C 163.875 241.6875 165.792969 242.484375 167.75 243.175781 C 168.882812 243.578125 169.761719 244.496094 170.121094 245.640625 L 174.277344 259.171875 C 174.714844 260.59375 175.925781 261.632812 177.40625 261.820312 C 184.0625 262.726562 190.816406 262.726562 197.472656 261.820312 C 198.9375 261.632812 200.164062 260.59375 200.605469 259.171875 L 204.757812 245.640625 C 205.117188 244.496094 205.996094 243.578125 207.128906 243.175781 C 209.085938 242.484375 211.015625 241.6875 212.882812 240.792969 C 213.972656 240.273438 215.238281 240.300781 216.304688 240.875 L 228.808594 247.503906 C 230.125 248.183594 231.726562 248.066406 232.898438 247.160156 C 238.25 243.085938 243.015625 238.316406 247.09375 232.976562 C 247.996094 231.792969 248.132812 230.195312 247.4375 228.886719 L 240.808594 216.382812 C 240.222656 215.332031 240.179688 214.054688 240.671875 212.960938 C 241.566406 211.082031 242.363281 209.167969 243.058594 207.207031 C 243.457031 206.0625 244.375 205.183594 245.535156 204.839844 L 259.0625 200.671875 C 260.476562 200.230469 261.515625 199.019531 261.714844 197.554688 C 262.605469 190.882812 262.605469 184.144531 261.714844 177.472656 C 261.515625 176.007812 260.476562 174.78125 259.0625 174.355469 L 245.535156 170.1875 C 244.375 169.84375 243.457031 168.964844 243.058594 167.816406 C 242.363281 165.859375 241.566406 163.941406 240.671875 162.066406 C 240.179688 160.972656 240.222656 159.695312 240.808594 158.640625 L 247.4375 146.136719 C 248.132812 144.820312 247.996094 143.234375 247.09375 142.050781 C 243.015625 136.710938 238.25 131.929688 232.898438 127.867188 C 231.726562 126.960938 230.125 126.828125 228.808594 127.519531 L 216.304688 134.152344 C 215.238281 134.726562 213.972656 134.753906 212.882812 134.234375 C 211.015625 133.339844 209.085938 132.542969 207.128906 131.847656 C 205.996094 131.449219 205.117188 130.53125 204.757812 129.371094 L 200.605469 115.855469 C 200.164062 114.429688 198.9375 113.390625 197.472656 113.191406 C 194.996094 112.859375 192.507812 112.644531 190.003906 112.566406 "/>
</g>
</g>
</svg>
