<svg xmlns="http://www.w3.org/2000/svg" width="349" height="348" viewBox="0 0 349 348">
    <g fill="none" fill-rule="nonzero" opacity=".15">
        <path fill="#009CDE" d="M317.684 292.737l1.198-1.369c16.944-19.43 24.117-31.05 30.118-52.052l-.77-1.751c-8.284-18.69-15.913-31.77-39.142-63.337l2.112-2.877c22.314-30.447 30.057-43.151 37.8-62.21-5.526-21.492-13.509-33.159-31.316-53.422l-18.728 20.623c-17.781 19.537-36.793 40.13-67.237 71.483v52.807l3.647 3.76c38.713 39.975 58.494 62.138 82.318 88.345zm-.013-1.502l-14.629-16.113c-25.225-27.752-42.6-46.34-70.323-74.896V148.23l6.415-6.62 5.261-5.453c20.163-20.94 35.368-37.258 55.095-58.919l18.18-20.017 1.157 1.325c17.67 20.343 24.172 31.428 29.122 50.524l-.47 1.146-.458 1.099c-7.48 17.838-15.548 30.764-38.025 61.35l-1.15 1.563 2.424 3.3 2.458 3.369c19.179 26.375 26.75 39.2 35.211 58.49l-.396 1.36-.396 1.318c-5.632 18.51-12.546 29.81-29.476 49.17z"/>
        <path fill="#637696" d="M56.105 31.772l1.369-1.198C76.904 13.63 88.524 6.457 109.526.456l1.751.771c18.69 8.283 31.77 15.912 63.337 39.141l2.877-2.112c30.447-22.314 43.151-30.057 62.21-37.8 21.492 5.526 33.159 13.509 53.422 31.316L274.082 49.07c-20.014 18.228-40.864 37.548-73.064 69.28H148.21l-7.42-7.295c-37.69-36.975-59.29-56.773-84.686-79.283zm2.881-1.187l-1.369 1.191 3.54 3.145c27.17 24.183 48.628 44.274 81.878 76.935l5.585 5.495h51.988l4.98-4.898c26.056-25.581 44.404-42.815 70.122-66.216l15.911-14.452-1.325-1.155C270.39 13.338 259.349 6.742 240.993 1.829l-1.22-.322-1.63.671c-17.404 7.24-29.949 14.883-58.196 35.52l-5.333 3.912-4.182-3.069-2.436-1.776c-25.576-18.6-38.415-26.292-56.732-34.45l-1.809-.798-.683.198-1.378.407c-18.431 5.533-29.67 12.22-48.408 28.463zM293.737 316.684l-1.369 1.198C272.938 334.826 261.318 342 240.316 348l-1.751-.77c-18.69-8.284-31.77-15.913-63.337-39.142l-2.877 2.112c-30.447 22.314-43.151 30.057-62.21 37.8-21.492-5.526-33.159-13.509-53.422-31.316l19.041-17.298c20.014-18.227 40.865-37.547 73.065-69.28h52.807l7.419 7.295c37.69 36.975 59.29 56.773 84.686 79.283zm-2.88 1.188l1.368-1.192-3.54-3.145c-27.17-24.183-48.628-44.274-81.878-76.935l-5.585-5.495h-51.988l-4.98 4.898c-26.056 25.582-44.404 42.815-70.121 66.216L58.22 316.671l1.325 1.156c19.905 17.29 30.947 23.887 49.303 28.8l1.22.322 1.147-.47 1.61-.673c17.202-7.262 29.992-15.203 58.931-36.41l3.471-2.55 3.3 2.424 3.3 2.409c25.855 18.802 38.695 26.461 57.325 34.716l1.234.544.683-.197c19.259-5.617 30.586-12.227 49.786-28.87zM32.158 55.72l-1.198 1.368C14.017 76.518 6.843 88.138.842 109.14l.771 1.751c8.283 18.69 15.912 31.77 39.141 63.337l-2.112 2.877c-22.314 30.447-30.057 43.151-37.8 62.21 5.526 21.492 13.509 33.159 31.316 53.422l17.298-19.041c18.228-20.014 37.548-40.864 69.28-73.064v-52.807l-4.908-4.992c-38.473-39.201-58.091-61.177-81.67-87.114zm.013 1.501l14.452 15.912 5.378 5.9c22.175 24.272 39.471 42.545 65.736 69.201v51.988l-4.97 5.052-5.177 5.286c-22.385 22.903-38.64 40.244-59.859 63.546l-15.56 17.13-1.155-1.326c-17.672-20.343-24.172-31.428-29.123-50.524l.47-1.146.687-1.643c7.417-17.56 15.548-30.531 37.796-60.805l1.15-1.564-3.07-4.182-1.812-2.487c-19.179-26.375-26.75-39.2-35.211-58.49l.396-1.36.396-1.318C8.327 87.88 15.24 76.58 32.17 57.22z"/>
    </g>
</svg>
