<svg xmlns="http://www.w3.org/2000/svg" width="50" height="50" viewBox="0 0 50 50">
    <g fill="none" fill-rule="nonzero">
        <path fill="#E7EBF2" d="M25.5 38.752c-11.586 0-21.292-8-23.844-18.752A24.323 24.323 0 0 0 1 25.624C1 39.086 11.969 50 25.5 50S50 39.086 50 25.624c0-1.936-.227-3.819-.656-5.624C46.793 30.751 37.086 38.752 25.5 38.752z"/>
        <path fill="#3A4E6F" d="M49.252 31.047C45.913 44.443 32.346 52.591 18.95 49.252 5.56 45.913-2.592 32.347.749 18.955 4.087 5.56 17.653-2.59 31.045.748c13.261 3.306 21.383 16.636 18.303 29.898l-.096.401zm-1.852-.853C50.233 17.993 42.76 5.73 30.56 2.689 18.24-.383 5.76 7.116 2.69 19.439c-3.074 12.32 4.424 24.8 16.743 27.872 12.142 3.027 24.434-4.203 27.735-16.199l.097-.365.135-.553z"/>
        <path fill="#3A4E6F" d="M26.297 11.496l-.726 2.91 4.852 1.21.726-2.91 1.94.483-.826 3.315a5.001 5.001 0 0 1-2.023 8.859 5.001 5.001 0 0 1-2.372 8.77l-.827 3.314-1.94-.484.725-2.91-4.851-1.21-.726 2.91-1.94-.483.725-2.911-3.881-.968.484-1.94 1.94.483 3.63-14.554-1.941-.484.484-1.94 3.88.967.726-2.91 1.941.483zm1.465 14.794l-6.792-1.694-1.452 5.822 6.792 1.693a3 3 0 1 0 1.452-5.821zm2.177-8.733l-6.792-1.693-1.452 5.821 6.792 1.694a3 3 0 1 0 1.452-5.822z"/>
    </g>
</svg>
