<svg xmlns="http://www.w3.org/2000/svg" width="50" height="50" viewBox="0 0 50 50">
    <g fill="none" fill-rule="nonzero">
        <path fill="#E7EBF2" d="M25.5 38.752c-11.586 0-21.292-8-23.844-18.752A24.323 24.323 0 0 0 1 25.624C1 39.086 11.969 50 25.5 50S50 39.086 50 25.624c0-1.936-.227-3.819-.656-5.624C46.793 30.751 37.086 38.752 25.5 38.752z"/>
        <path fill="#3A4E6F" d="M18.95 49.252C5.56 45.913-2.592 32.347.749 18.955 4.087 5.56 17.653-2.59 31.045.748c13.395 3.34 21.546 16.906 18.207 30.3C45.913 44.442 32.346 52.59 18.95 49.251zm.853-1.852c12.205 2.833 24.467-4.637 27.508-16.836 3.072-12.322-4.427-24.803-16.75-27.875C18.24-.383 5.76 7.116 2.689 19.439-.353 31.635 6.965 43.99 19.065 47.216l.368.095.37.09z"/>
        <path fill="#3A4E6F" d="M22.833 12.944l.776 2.897 4.83-1.294-.776-2.898 1.931-.517.885 3.3a5.001 5.001 0 0 1 2.525 8.728 5.001 5.001 0 0 1 2.177 8.82l.884 3.3-1.932.518-.776-2.898-4.83 1.294.776 2.898-1.931.517-.777-2.897-3.864 1.035-.517-1.932 1.932-.518-3.883-14.489-1.932.518-.517-1.932 3.864-1.035-.777-2.898 1.932-.517zm8.453 12.228l-6.761 1.812 1.552 5.796 6.762-1.812a3 3 0 0 0-1.553-5.796zm-2.33-8.693l-6.76 1.812 1.552 5.795 6.762-1.811a3 3 0 0 0-1.553-5.796z"/>
    </g>
</svg>
