<svg xmlns="http://www.w3.org/2000/svg" width="50" height="50" viewBox="0 0 50 50">
    <g fill="none" fill-rule="nonzero">
        <path fill="#E7EBF2" d="M24.5 37.752c-11.586 0-21.292-8-23.844-18.752A24.323 24.323 0 0 0 0 24.624C0 38.086 10.969 49 24.5 49S49 38.086 49 24.624c0-1.936-.227-3.819-.656-5.624C45.793 29.751 36.086 37.752 24.5 37.752z"/>
        <path fill="#3A4E6F" d="M25 50C11.193 50 0 38.807 0 25S11.193 0 25 0s25 11.193 25 25-11.193 25-25 25zm0-2c12.703 0 23-10.297 23-23S37.703 2 25 2 2 12.297 2 25c0 12.702 10.297 23 23 23z"/>
        <path fill="#3A4E6F" d="M25 40c8.284 0 15-6.716 15-15 0-8.284-6.716-15-15-15-8.284 0-15 6.716-15 15 0 8.284 6.716 15 15 15zm0-2c-7.18 0-13-5.82-13-13s5.82-13 13-13 13 5.82 13 13-5.82 13-13 13z"/>
        <path fill="#3A4E6F" d="M19 32v-9.085l6 7.714 6-7.714V32h6v-2h-4V17.085l-8 10.286-8-10.286V30h-4v2z"/>
    </g>
</svg>
