<svg xmlns="http://www.w3.org/2000/svg" width="35" height="35" viewBox="0 0 35 35">
    <g fill="none" fill-rule="nonzero">
        <path fill="#E7EBF2" d="M18 27.127C9.961 27.127 3.226 21.526 1.455 14A17.17 17.17 0 0 0 1 17.937C1 27.36 8.611 35 18 35s17-7.64 17-17.063c0-1.355-.158-2.673-.455-3.937C32.775 21.526 26.04 27.127 18 27.127z"/>
        <path fill="#3A4E6F" d="M35 17.5C35 27.165 27.165 35 17.5 35S0 27.165 0 17.5 7.835 0 17.5 0 35 7.835 35 17.5zm-2 0C33 8.94 26.06 2 17.5 2 8.94 2 2 8.94 2 17.5 2 26.06 8.94 33 17.5 33 26.06 33 33 26.06 33 17.5z"/>
        <path fill="#3A4E6F" d="M18.463 8.27l-1.926-.54L11.68 25H23.5v-2h-9.18z"/>
        <path fill="#3A4E6F" d="M9.629 18.572l.742 1.856 10-4-.742-1.856z"/>
    </g>
</svg>
