<svg xmlns="http://www.w3.org/2000/svg" width="50" height="50" viewBox="0 0 50 50">
    <g fill="none" fill-rule="nonzero">
        <path fill="#E7EBF2" d="M24.5 38.752c-11.586 0-21.292-8-23.844-18.752A24.323 24.323 0 0 0 0 25.624C0 39.086 10.969 50 24.5 50S49 39.086 49 25.624c0-1.936-.227-3.819-.656-5.624C45.793 30.751 36.086 38.752 24.5 38.752z"/>
        <path stroke="#3A4E6F" stroke-width="2" d="M48.235 30.993l.046-.188c3.206-12.857-4.62-25.881-17.478-29.087-12.857-3.205-25.88 4.62-29.084 17.48-3.207 12.855 4.618 25.878 17.472 29.084 12.8 3.19 25.758-4.542 29.044-17.289z"/>
        <path fill="#3A4E6F" d="M36.167 27.57L25.02 6.394 13.318 27.572l11.702 16.16L36.167 27.57zm-2.334-.14L24.98 40.267l-9.298-12.84 9.297-16.82 8.854 16.823z"/>
        <path fill="#3A4E6F" d="M14.982 26.624l-.964 1.752L24.5 34.141l10.482-5.765-.964-1.752-9.518 5.235z"/>
        <path fill="#3A4E6F" d="M24 9v33h2V9z"/>
    </g>
</svg>
