<svg xmlns="http://www.w3.org/2000/svg" width="35" height="35" viewBox="0 0 35 35">
    <g fill="none" fill-rule="nonzero">
        <path fill="#E7EBF2" d="M17 27.127C8.961 27.127 2.226 21.526.455 14A17.17 17.17 0 0 0 0 17.937C0 27.36 7.611 35 17 35s17-7.64 17-17.063c0-1.355-.158-2.673-.455-3.937C31.775 21.526 25.04 27.127 17 27.127z"/>
        <path fill="#3A4E6F" d="M13.265 34.476C3.892 32.14-1.815 22.643.525 13.27 2.86 3.892 12.356-1.814 21.73.524c9.377 2.337 15.083 11.834 12.745 21.21-2.337 9.376-11.833 15.08-21.211 12.742zm.795-1.866c8.205 1.87 16.432-3.16 18.476-11.36 2.07-8.304-2.984-16.716-11.288-18.786C12.944.394 4.534 5.448 2.465 13.753.419 21.95 5.322 30.255 13.439 32.455l.31.08.311.075z"/>
        <path fill="#3A4E6F" d="M15.863 11.966c0 .864.294 1.725.812 2.628.168.331.13.587-.175.737a.653.653 0 0 1-.891-.212l-.059-.085c-.607-.796-1.194-1.39-1.908-1.85-1.632-.938-3.519-.938-5.106-.028C6.962 14.059 6 15.709 6 17.48c0 1.774.959 3.42 2.536 4.324 1.587.91 3.474.91 5.06 0 .8-.434 1.47-1.133 1.955-1.993.165-.283.466-.408.824-.208.25.146.348.515.2.806-.451.79-.712 1.693-.712 2.586 0 1.775.96 3.42 2.54 4.322a5.03 5.03 0 0 0 5.059 0C25.037 26.413 26 24.765 26 22.995c0-1.773-.96-3.42-2.538-4.324-.828-.45-1.73-.648-2.757-.648-.346 0-.58-.187-.58-.543 0-.324.224-.542.58-.542.98 0 1.945-.207 2.736-.636C25.037 15.387 26 13.74 26 11.969c0-1.773-.961-3.42-2.54-4.322C22.756 7.215 21.85 7 20.93 7c-.807-.004-1.624.168-2.31.522l-.223.124c-1.573.904-2.534 2.55-2.534 4.32zm3.556-2.6c.389-.237.945-.37 1.506-.366.58 0 1.128.13 1.518.368C23.425 9.93 24 10.916 24 11.97c0 1.052-.577 2.039-1.533 2.587-.396.215-.937.347-1.513.376l-.25.007c-1.448 0-2.58 1.102-2.58 2.542 0 1.512 1.125 2.468 2.424 2.54l.157.003c.713 0 1.29.127 1.782.394A2.983 2.983 0 0 1 24 22.996c0 1.05-.577 2.038-1.533 2.587-.97.556-2.1.556-3.07 0-.96-.549-1.534-1.531-1.534-2.587 0-.53.164-1.096.472-1.638.642-1.257.232-2.79-.968-3.49-1.382-.773-2.764-.25-3.47.817l-.08.13c-.318.564-.725.989-1.195 1.244-.991.568-2.12.568-3.09.011C8.573 19.521 8 18.536 8 17.481c0-1.053.577-2.043 1.531-2.59.97-.557 2.1-.557 3.07 0 .437.283.864.712 1.333 1.32.716 1.117 2.178 1.548 3.357.964l.153-.082c1.415-.69 1.632-2.194.988-3.451-.381-.67-.569-1.218-.569-1.676 0-1.052.577-2.039 1.533-2.587l-.502-.876.525.862z"/>
    </g>
</svg>
