<svg xmlns="http://www.w3.org/2000/svg" width="24" height="24" viewBox="0 0 24 24">
    <g fill="#637696" fill-rule="nonzero" opacity=".6">
        <path d="M16.128 3H7.872A4.878 4.878 0 0 0 3 7.872v8.256A4.878 4.878 0 0 0 7.872 21h8.256A4.878 4.878 0 0 0 21 16.128V7.872A4.878 4.878 0 0 0 16.128 3zM12 17c-2.757 0-5-2.243-5-5s2.243-5 5-5 5 2.243 5 5-2.243 5-5 5zm5-9a1.001 1.001 0 0 1 0-2 1.001 1.001 0 0 1 0 2z"/>
        <path d="M12 9c-1.654 0-3 1.346-3 3s1.346 3 3 3 3-1.346 3-3-1.346-3-3-3z"/>
    </g>
</svg>
